# AST/ASF file generated using VICON BodyLanguage
# -----------------------------------------------
:version 1.10
:name VICON
:units
  mass 1.0
  length 0.45
  angle deg
:documentation
   .ast/.asf automatically generated from VICON data using
   VICON BodyBuilder and BodyLanguage model FoxedUp or BRILLIANT.MOD
:root
   order TX TY TZ RX RY RZ
   axis XYZ
   position 0 0 0  
   orientation 0 0 0 
:bonedata
  begin
     id 1 
     name lhipjoint
     direction 0.650112 -0.723553 0.232005 
     length 2.45805 
     axis 0 0 0  XYZ
  end
  begin
     id 2 
     name lfemur
     direction 0.34202 -0.939693 0  
     length 7.00073  
     axis 0 0 20  XYZ
    dof rx ry rz
    limits (-160.0 20.0)
           (-70.0 70.0)
           (-60.0 70.0)
  end
  begin
     id 3 
     name ltibia
     direction 0.34202 -0.939693 0   
     length 7.8748   
     axis 0 0 20   XYZ
    dof rx
    limits (-10.0 170.0)
  end
  begin
     id 4 
     name lfoot
     direction 0.0542825 -0.14914 0.987325   
     length 1.75978   
     axis -90 7.62852e-016 20   XYZ
    dof rx rz
    limits (-45.0 90.0)
           (-70.0 20.0)
  end
  begin
     id 5 
     name ltoes
     direction 1.53509e-011 -4.21906e-011 1   
     length 0.893912   
     axis -90 7.62852e-016 20   XYZ
    dof rx
    limits (-90.0 20.0)
  end
  begin
     id 6 
     name rhipjoint
     direction -0.637897 -0.733345 0.235145   
     length 2.42522  
     axis 0 0 0  XYZ 
  end
  begin
     id 7 
     name rfemur
     direction -0.34202 -0.939693 0   
     length 7.02549   
     axis 0 0 -20   XYZ
    dof rx ry rz
    limits (-160.0 20.0)
           (-70.0 70.0)
           (-70.0 60.0)
  end
  begin
     id 8 
     name rtibia
     direction -0.34202 -0.939693 0   
     length 7.71512   
     axis 0 0 -20   XYZ
    dof rx
    limits (-10.0 170.0)
 end
 begin
     id 9 
     name rfoot
     direction -0.0822618 -0.226012 0.970645   
     length 1.90014  
     axis -90 -7.62852e-016 -20   XYZ
    dof rx rz
    limits (-45.0 90.0)
           (-20.0 70.0)
  end
  begin
     id 10 
     name rtoes
     direction -1.53542e-011 -4.21872e-011 1   
     length 0.957341   
     axis -90 -7.62852e-016 -20   XYZ
    dof rx
    limits (-90.0 20.0)
  end
  begin
     id 11 
     name lowerback
     direction -0.0022947 0.999774 -0.0211557   
     length 1.89909   
     axis 0 0 0   XYZ
    dof rx ry rz
    limits (-20.0 45.0)
           (-30.0 30.0)
           (-30.0 30.0)
  end
  begin
     id 12 
     name upperback
     direction 0.0107737 0.998635 0.0511027   
     length 1.8853   
     axis 0 0 0   XYZ
    dof rx ry rz
    limits (-20.0 45.0)
           (-30.0 30.0)
           (-30.0 30.0)
  end
  begin
     id 13 
     name thorax
     direction 0.011824 0.998136 0.0598754   
     length 1.88911   
     axis 0 0 0   XYZ
    dof rx ry rz
    limits (-20.0 45.0)
           (-30.0 30.0)
           (-30.0 30.0)
  end
  begin
     id 14 
     name lowerneck
     direction -0.0685355 0.990319 0.120714   
     length 1.91222   
     axis 0 0 0   XYZ
    dof rx ry rz
    limits (-20.0 45.0)
           (-30.0 30.0)
           (-30.0 30.0)
  end
  begin
     id 15 
     name upperneck
     direction 0.0886204 0.955665 -0.280805   
     length 1.92526   
     axis 0 0 0   XYZ
    dof rx ry rz
    limits (-20.0 45.0)
           (-30.0 30.0)
           (-30.0 30.0)
  end
  begin
     id 16
     name head
     direction 0.0233423 0.993502 -0.111393  
     length 1.96056  
     axis 0 0 0   XYZ
    dof rx ry rz
    limits (-20.0 45.0)
           (-30.0 30.0)
           (-30.0 30.0)
  end
  begin
     id 17 
     name lclavicle
     direction 0.941873 0.32922 0.0670041  
     length 3.31705  
     axis 0 0 0   XYZ
    dof ry rz
    limits (-20.0 10.0)
           (0.0 20.0)
  end
  begin
     id 18 
     name lhumerus
     direction 1 -4.4898e-011 3.38707e-028   
     length 5.29277   
     axis 180 -30 -90   XYZ
    dof rx ry rz
    limits (-60.0 90.0)
           (-90.0 90.0)
           (-90.0 90.0)
  end
  begin
     id 19
     name lradius
     direction 1 -4.48952e-011 1.63213e-028   
     length 2.85226   
     axis 180 -30 -90   XYZ
    dof rx
    limits (-10.0 170.0)
  end
  begin
     id 20
     name lwrist
     direction 1 -4.49001e-011 1.27856e-027   
     length 1.42613   
     axis -1.61767e-015 90 90   XYZ
    dof ry
    limits (-180.0 0.0)
 end
  begin
     id 21 
     name lhand
     direction 1 -4.48976e-011 2.55931e-027   
     length 0.602097   
     axis -1.63363e-015 90 90   XYZ
    dof rx rz
    limits (-90.0 90.0)
           (-45.0 45.0)
  end
  begin
     id 22 
     name lfingers
     direction 1 -4.48986e-011 5.11684e-027   
     length 0.485426   
     axis -3.26723e-015 90 90   XYZ
    dof rx
    limits (0.0 90.0)
  end
  begin
     id 23
     name lthumb
     direction 0.707107 -6.34915e-011 0.707107   
     length 0.696978   
     axis -90 45 -2.25915e-014   XYZ
    dof rx rz
    limits (-45.0 45.0)
           (-45.0 45.0)
  end
  begin
     id 24 
     name rclavicle
     direction -0.939974 0.327078 0.0973096   
     length 3.10337  
     axis 0 0 0   XYZ 
    dof ry rz
    limits (-10.0 20.0)
           (-20.0 0.0)
  end
  begin
     id 25 
     name rhumerus
     direction -1 -4.48975e-011 1.83745e-027  
     length 5.13304   
     axis 180 30 90   XYZ
    dof rx ry rz
    limits (-90.0 60.0)
           (-90.0 90.0)
           (-90.0 90.0)
  end
  begin
     id 26 
     name rradius
     direction -1 -4.48977e-011 7.1775e-029   
     length 2.74305   
     axis 180 30 90   XYZ
    dof rx
    limits (-10.0 170.0)
  end
  begin
     id 27 
     name rwrist
     direction -1 -4.48977e-011 1.27963e-027   
     length 1.37152   
     axis -1.61767e-015 -90 -90   XYZ
    dof ry
    limits (-180.0 0.0)
  end
  begin
     id 28
     name rhand
     direction -1 -4.4888e-011 2.56782e-027   
     length 0.767976   
     axis -1.63363e-015 -90 -90   XYZ
    dof rx rz
    limits (-90.0 90.0)
           (-45.0 45.0)
  end
  begin
     id 29
     name rfingers
     direction -1 -4.48947e-011 5.12384e-027   
     length 0.619162   
     axis -3.26723e-015 -90 -90   XYZ
    dof rx
    limits (0.0 90.0)
  end
  begin
     id 30
     name rthumb
     direction -0.707107 -6.34857e-011 0.707107   
     length 0.888997   
     axis -90 -45 2.25915e-014   XYZ
    dof rx rz
    limits (-45.0 45.0)
           (-45.0 45.0)
  end
:hierarchy
  begin
    root lhipjoint rhipjoint lowerback
    lhipjoint lfemur
    lfemur ltibia
    ltibia lfoot
    lfoot ltoes
    rhipjoint rfemur
    rfemur rtibia
    rtibia rfoot
    rfoot rtoes
    lowerback upperback
    upperback thorax
    thorax lowerneck lclavicle rclavicle
    lowerneck upperneck
    upperneck head
    lclavicle lhumerus
    lhumerus lradius
    lradius lwrist
    lwrist lhand lthumb
    lhand lfingers
    rclavicle rhumerus
    rhumerus rradius
    rradius rwrist
    rwrist rhand rthumb
    rhand rfingers
  end

#!OML:ASF F:\VICON\USERDATA\INSTALL\rory3\rory3.ASF
:FULLY-SPECIFIED
:DEGREES
103
root 0.287595 16.9414 0.0899142 0.163123 4.61454 -1.99477
lowerback -0.781941 -1.27527 -2.20803
upperback -4.65209 -1.66456 2.14344
thorax -4.23534 -0.699202 3.50204
lowerneck -10.8904 -11.0685 -17.8937
upperneck 35.9217 -16.0492 9.76481
head 17.4351 -8.03712 4.31695
rclavicle -4.67144e-015 4.17448e-015
rhumerus 7.15132 -10.2973 -14.2247
rradius 70.9145
rwrist -0.0493703
rhand 13.3877 14.9341
rfingers 7.12502
rthumb 38.3319 -10.774
lclavicle -4.67144e-015 4.17448e-015
lhumerus 24.404 29.6149 -1.45613
lradius 81.6794
lwrist 21.3859
lhand 15.1821 30.7794
lfingers 7.12502
lthumb 40.0231 55.9985
rfemur -6.18486 5.01721 20.3386
rtibia 27.8026
rfoot -22.711 -10.8669
rtoes -21.0317
lfemur -10.8651 -7.39925 -16.3367
ltibia 33.8037
lfoot -21.8663 -1.20535
ltoes -17.9375
104
root 0.277056 16.9324 0.103037 0.198048 4.66592 -2.16505
lowerback -0.832957 -1.20225 -2.06291
upperback -4.63269 -1.57188 1.90386
thorax -4.20202 -0.664273 3.1673
lowerneck -11.006 -11.1512 -17.7523
upperneck 35.9013 -16.1749 9.72726
head 17.4553 -8.06944 4.2401
rclavicle 8.44835e-016 -1.30204e-014
rhumerus 7.00689 -10.7907 -13.2575
rradius 71.2836
rwrist -0.302576
rhand 13.6063 15.1134
rfingers 7.12502
rthumb 38.5382 -10.5373
lclavicle 8.44835e-016 -1.30204e-014
lhumerus 25.9185 30.9154 -0.910304
lradius 81.6273
lwrist 21.9895
lhand 14.946 30.5132
lfingers 7.12502
lthumb 39.8008 55.799
rfemur -6.21274 5.03865 20.5781
rtibia 27.9365
rfoot -22.8347 -10.8772
rtoes -21.0035
lfemur -11.027 -7.16245 -16.0587
ltibia 34.0517
lfoot -21.9621 -1.71861
ltoes -16.7241
105
root 0.265882 16.9193 0.1145 0.223161 4.6864 -2.336
lowerback -0.822987 -1.14846 -1.91077
upperback -4.70221 -1.50381 1.71212
thorax -4.29268 -0.637848 2.88277
lowerneck -11.0045 -11.1609 -17.7828
upperneck 35.9767 -16.1761 9.6931
head 17.4969 -8.08053 4.23048
rclavicle 1.1778e-014 -2.127e-014
rhumerus 6.89243 -11.1102 -12.3347
rradius 71.7315
rwrist -0.468024
rhand 13.7322 15.2504
rfingers 7.12502
rthumb 38.657 -10.3671
lclavicle 1.1778e-014 -2.127e-014
lhumerus 27.1197 31.9844 -0.334172
lradius 81.7394
lwrist 22.5576
lhand 14.5024 30.5485
lfingers 7.12502
lthumb 39.383 55.9577
rfemur -6.21658 5.05767 20.8075
rtibia 28.0663
rfoot -22.9929 -10.7984
rtoes -20.9644
lfemur -11.1865 -6.91381 -15.7879
ltibia 34.3112
lfoot -22.0334 -2.01346
ltoes -16.501
106
root 0.254661 16.9122 0.127371 0.23712 4.70442 -2.29713
lowerback -0.813116 -1.1661 -2.03123
upperback -4.76314 -1.53404 1.58629
thorax -4.36049 -0.649218 2.82223
lowerneck -11.1205 -11.1175 -18.0674
upperneck 36.1846 -16.0038 9.62399
head 17.6358 -8.05562 4.28348
rclavicle 5.3765e-015 8.29926e-015
rhumerus 7.0787 -11.2977 -11.3793
rradius 72.2421
rwrist -0.765358
rhand 13.9039 15.1878
rfingers 7.12502
rthumb 38.8189 -10.3839
lclavicle 5.3765e-015 8.29926e-015
lhumerus 27.8336 32.8664 0.100298
lradius 81.7691
lwrist 22.7564
lhand 13.826 30.7192
lfingers 7.12502
lthumb 38.7454 56.3117
rfemur -6.23509 5.03066 20.8088
rtibia 28.2065
rfoot -23.0361 -10.8108
rtoes -21.0402
lfemur -11.297 -6.67438 -15.7706
ltibia 34.5445
lfoot -22.0364 -2.14647
ltoes -16.883
107
root 0.242211 16.9089 0.14154 0.293505 4.72358 -2.33857
lowerback -0.878512 -1.16403 -2.05091
upperback -4.85446 -1.5362 1.4265
thorax -4.42223 -0.651021 2.66781
lowerneck -11.0265 -11.0759 -18.2396
upperneck 36.2714 -15.8602 9.49028
head 17.636 -8.04321 4.28829
rclavicle 4.45402e-015 -6.95746e-015
rhumerus 7.23478 -11.4647 -10.3994
rradius 72.6176
rwrist -1.04039
rhand 13.838 15.1557
rfingers 7.12502
rthumb 38.7568 -10.4336
lclavicle 4.45402e-015 -6.95746e-015
lhumerus 28.5389 33.515 0.588418
lradius 81.7948
lwrist 23.1453
lhand 13.1649 30.6478
lfingers 7.12502
lthumb 38.1216 56.4139
rfemur -6.29944 5.00271 20.9041
rtibia 28.3461
rfoot -23.1551 -10.7749
rtoes -20.6166
lfemur -11.4534 -6.457 -15.6521
ltibia 34.7577
lfoot -22.0511 -2.31286
ltoes -17.2346
